<?xml version="1.0" encoding="utf-8"?>
<!-- Generator: Adobe Illustrator 19.0.0, SVG Export Plug-In . SVG Version: 6.00 Build 0)  -->
<svg version="1.1" id="Calque_1" xmlns="http://www.w3.org/2000/svg" xmlns:xlink="http://www.w3.org/1999/xlink" x="0px" y="0px"
	 viewBox="0 0 58.2 68.7" style="enable-background:new 0 0 58.2 68.7;" xml:space="preserve">
<style type="text/css">
	.st0{fill:none;stroke:#FFFFFF;stroke-width:0.45;}
	.st1{fill:#FFFFFF;}
	.st2{fill:#65B6A3;}
	.st3{fill:#CC2E78;}
	.st4{fill:#D68A35;}
	.st5{fill:#D2DC54;}
	.st6{fill:#8A4D99;}
</style>
<line class="st0" x1="0" y1="48.8" x2="58.2" y2="48.8"/>
<rect class="st1" width="1.8" height="23.5"/>
<g id="XMLID_1_">
	<path class="st1" d="M25.6,15.9c0,1.5-0.3,2.9-1,4c-0.7,1.2-1.6,2.1-2.9,2.8c-1.2,0.7-2.6,1-4.2,1c-1.5,0-2.9-0.3-4.2-1
		c-1.2-0.7-2.2-1.6-2.9-2.8c-0.7-1.2-1-2.5-1-4V0h1.8v15.7c0,1.3,0.3,2.4,0.8,3.4c0.5,1,1.3,1.7,2.2,2.3c1,0.5,2.1,0.8,3.3,0.8
		c1.2,0,2.3-0.3,3.3-0.8c1-0.5,1.7-1.3,2.2-2.3c0.5-1,0.8-2.1,0.8-3.4V0h1.8V15.9z"/>
	<polygon class="st1" points="46.4,1.6 39.4,1.6 39.4,23.5 37.6,23.5 37.6,1.6 30.6,1.6 30.6,0 46.4,0 	"/>
	<rect x="50.1" y="37.7" class="st2" width="7.6" height="7.6"/>
	<rect x="50.1" y="28.3" class="st3" width="7.6" height="7.6"/>
	<rect x="50.1" y="18.9" class="st4" width="7.6" height="7.6"/>
	<rect x="50.1" y="9.5" class="st5" width="7.6" height="7.6"/>
	<rect x="50.1" y="-0.1" class="st6" width="7.6" height="7.6"/>
	<polygon class="st1" points="10.7,68.6 0.2,68.6 0.2,51.3 1.5,51.3 1.5,67.4 10.7,67.4 	"/>
	<polygon class="st1" points="25.1,68.6 14.5,68.6 14.5,51.3 25.1,51.3 25.1,52.5 15.9,52.5 15.9,59.3 23.7,59.3 23.7,60.5 
		15.9,60.5 15.9,67.4 25.1,67.4 	"/>
	<polygon class="st1" points="42.2,68.6 40.9,68.6 30.9,53.5 30.9,68.6 29.6,68.6 29.6,51.3 30.9,51.3 40.9,66.3 40.9,51.3 
		42.2,51.3 	"/>
	<path class="st1" d="M58.2,64c0,0.7-0.1,1.4-0.4,2c-0.3,0.6-0.7,1.1-1.2,1.5c-0.5,0.4-1.1,0.7-1.9,1c-0.7,0.2-1.5,0.3-2.4,0.3
		c-0.8,0-1.6-0.1-2.3-0.2c-0.7-0.2-1.3-0.4-1.9-0.7c-0.6-0.3-1.1-0.8-1.6-1.3l0.9-0.9c0.5,0.5,1,0.9,1.5,1.2c0.5,0.3,1,0.5,1.6,0.6
		c0.6,0.1,1.2,0.2,1.8,0.2c0.9,0,1.7-0.1,2.4-0.4c0.7-0.3,1.2-0.7,1.5-1.2c0.4-0.5,0.5-1.2,0.5-1.9c0-1.1-0.3-1.9-0.9-2.4
		c-0.3-0.3-0.6-0.4-1-0.6c-0.4-0.1-0.9-0.2-1.5-0.4l-2-0.3c-1.3-0.2-2.3-0.6-3.1-1.3c-0.9-0.8-1.4-1.8-1.4-3.2c0-0.7,0.1-1.4,0.4-2
		c0.3-0.6,0.6-1.1,1.1-1.5c0.5-0.4,1-0.7,1.7-0.9c0.7-0.2,1.4-0.3,2.2-0.3c1.1,0,2,0.1,2.7,0.4c0.8,0.3,1.5,0.8,2.3,1.4l-0.9,0.9
		c-0.6-0.5-1.2-1-1.8-1.2c-0.6-0.3-1.4-0.4-2.4-0.4c-1.2,0-2.2,0.3-2.9,1c-0.7,0.6-1.1,1.5-1.1,2.6c0,1,0.3,1.8,0.9,2.3
		c0.3,0.3,0.7,0.5,1.2,0.7c0.5,0.2,0.9,0.3,1.4,0.4l1.9,0.3c0.8,0.1,1.4,0.3,1.9,0.4c0.5,0.2,0.9,0.4,1.2,0.7
		c0.5,0.4,0.9,0.9,1.1,1.5C58,62.6,58.2,63.3,58.2,64"/>
	<rect x="30.2" y="28" class="st1" width="0.3" height="3.9"/>
	<path class="st1" d="M33.6,32h-0.3v-1.6c0-0.3-0.1-0.5-0.2-0.6c-0.1-0.1-0.3-0.2-0.5-0.2c-0.2,0-0.3,0-0.4,0.1
		c-0.1,0.1-0.2,0.2-0.3,0.3c-0.1,0.1-0.1,0.3-0.1,0.4V32h-0.3v-2.7h0.3v0.3c0.2-0.2,0.5-0.3,0.8-0.3c0.3,0,0.5,0.1,0.7,0.3
		c0.2,0.2,0.3,0.4,0.3,0.7V32z"/>
	<path class="st1" d="M36.6,31.2c0,0.2,0,0.3-0.1,0.4c-0.1,0.1-0.2,0.2-0.4,0.3C35.9,32,35.7,32,35.5,32c-0.5,0-0.8-0.1-1.1-0.4
		l0.2-0.2c0.2,0.2,0.5,0.3,0.9,0.3c0.3,0,0.5,0,0.6-0.1c0.1-0.1,0.2-0.2,0.2-0.4c0-0.1,0-0.2-0.1-0.3c-0.1-0.1-0.2-0.1-0.4-0.1
		l-0.4,0c-0.5,0-0.8-0.3-0.8-0.7c0-0.2,0-0.3,0.1-0.4c0.1-0.1,0.2-0.2,0.3-0.3c0.1-0.1,0.3-0.1,0.5-0.1c0.2,0,0.4,0,0.5,0.1
		c0.2,0.1,0.3,0.1,0.4,0.2l-0.2,0.2c-0.2-0.2-0.5-0.2-0.7-0.2c-0.2,0-0.4,0-0.5,0.1c-0.1,0.1-0.2,0.2-0.2,0.4c0,0.1,0,0.2,0.1,0.3
		c0.1,0.1,0.2,0.1,0.4,0.1l0.4,0c0.2,0,0.4,0.1,0.6,0.2C36.5,30.8,36.6,31,36.6,31.2"/>
	<path class="st1" d="M38.3,32h-0.2c-0.1,0-0.2,0-0.3-0.1c-0.1-0.1-0.2-0.1-0.2-0.2c0-0.1-0.1-0.2-0.1-0.4v-1.8h-0.4v-0.2h0.4v-0.8
		h0.3v0.8h0.6v0.2h-0.6v1.8c0,0.3,0.1,0.4,0.4,0.4h0.2V32z"/>
	<path class="st1" d="M39.5,28.2c0,0.1,0,0.1-0.1,0.1c0,0-0.1,0.1-0.1,0.1s-0.1,0-0.1-0.1c0,0-0.1-0.1-0.1-0.1c0-0.1,0-0.1,0.1-0.1
		c0,0,0.1-0.1,0.1-0.1c0.1,0,0.1,0,0.1,0.1C39.5,28.1,39.5,28.2,39.5,28.2 M39.5,32h-0.3v-2.7h0.3V32z"/>
	<path class="st1" d="M41.5,32h-0.2c-0.1,0-0.2,0-0.3-0.1c-0.1-0.1-0.2-0.1-0.2-0.2c0-0.1-0.1-0.2-0.1-0.4v-1.8h-0.4v-0.2h0.4v-0.8
		h0.3v0.8h0.6v0.2h-0.6v1.8c0,0.3,0.1,0.4,0.4,0.4h0.2V32z"/>
	<path class="st1" d="M44.3,32h-0.3v-0.3c-0.2,0.2-0.5,0.3-0.8,0.3c-0.3,0-0.5-0.1-0.7-0.3c-0.2-0.2-0.3-0.4-0.3-0.7v-1.7h0.3v1.6
		c0,0.3,0.1,0.5,0.2,0.6c0.1,0.1,0.3,0.2,0.5,0.2c0.2,0,0.3,0,0.4-0.1c0.1-0.1,0.2-0.2,0.3-0.3c0.1-0.1,0.1-0.3,0.1-0.4v-1.6h0.3V32
		z"/>
	<path class="st1" d="M46.4,32h-0.2c-0.1,0-0.2,0-0.3-0.1c-0.1-0.1-0.2-0.1-0.2-0.2c0-0.1-0.1-0.2-0.1-0.4v-1.8h-0.4v-0.2h0.4v-0.8
		h0.3v0.8h0.6v0.2h-0.6v1.8c0,0.3,0.1,0.4,0.4,0.4h0.2V32z"/>
	<path class="st1" d="M19,37.3c0,0.3-0.1,0.5-0.2,0.7c-0.1,0.2-0.3,0.4-0.5,0.5c-0.2,0.1-0.4,0.2-0.7,0.2c-0.3,0-0.5-0.1-0.7-0.2
		c-0.2-0.1-0.4-0.3-0.5-0.5c-0.1-0.2-0.2-0.4-0.2-0.7v-2.6h0.3v2.6c0,0.2,0,0.4,0.1,0.6c0.1,0.2,0.2,0.3,0.4,0.4
		c0.2,0.1,0.3,0.1,0.5,0.1c0.2,0,0.4,0,0.5-0.1c0.2-0.1,0.3-0.2,0.4-0.4c0.1-0.2,0.1-0.3,0.1-0.6v-2.6H19V37.3z"/>
	<path class="st1" d="M22.1,38.6h-0.3v-1.6c0-0.3-0.1-0.5-0.2-0.6c-0.1-0.1-0.3-0.2-0.5-0.2c-0.2,0-0.3,0-0.4,0.1
		c-0.1,0.1-0.2,0.2-0.3,0.3c-0.1,0.1-0.1,0.3-0.1,0.4v1.6H20v-2.7h0.3v0.3c0.2-0.2,0.5-0.3,0.8-0.3c0.3,0,0.5,0.1,0.7,0.3
		c0.2,0.2,0.3,0.4,0.3,0.7V38.6z"/>
	<path class="st1" d="M23.5,34.8c0,0.1,0,0.1-0.1,0.1c0,0-0.1,0.1-0.1,0.1c-0.1,0-0.1,0-0.1-0.1c0,0-0.1-0.1-0.1-0.1
		c0-0.1,0-0.1,0.1-0.1c0,0,0.1-0.1,0.1-0.1c0.1,0,0.1,0,0.1,0.1C23.4,34.7,23.5,34.8,23.5,34.8 M23.4,38.6h-0.3v-2.7h0.3V38.6z"/>
	<polygon class="st1" points="26.2,35.9 25.3,38.6 25,38.6 24,35.9 24.3,35.9 25.1,38.2 25.9,35.9 	"/>
	<path class="st1" d="M28.8,37.3H27c0,0.3,0.1,0.6,0.2,0.8c0.1,0.2,0.4,0.3,0.6,0.3c0.2,0,0.3,0,0.4-0.1c0.1,0,0.2-0.1,0.3-0.2
		l0.2,0.2c-0.1,0.1-0.3,0.2-0.4,0.3c-0.1,0.1-0.3,0.1-0.5,0.1c-0.2,0-0.4-0.1-0.6-0.2c-0.2-0.1-0.3-0.3-0.4-0.5
		c-0.1-0.2-0.1-0.5-0.1-0.7c0-0.2,0-0.4,0.1-0.6c0-0.2,0.1-0.3,0.2-0.4c0.1-0.1,0.2-0.2,0.3-0.3c0.1-0.1,0.3-0.1,0.4-0.1
		c0.2,0,0.3,0,0.4,0.1c0.1,0.1,0.2,0.1,0.3,0.3c0.1,0.1,0.2,0.2,0.2,0.4c0,0.2,0.1,0.3,0.1,0.5V37.3z M28.5,37.1c0-0.1,0-0.2,0-0.3
		c0-0.1,0-0.1-0.1-0.2c-0.1-0.1-0.1-0.2-0.3-0.3c-0.1-0.1-0.3-0.1-0.4-0.1c-0.2,0-0.3,0-0.4,0.1c-0.1,0.1-0.2,0.2-0.3,0.3
		c0,0.1-0.1,0.2-0.1,0.2c0,0.1,0,0.2,0,0.3H28.5z"/>
	<path class="st1" d="M31.4,36.1l-0.2,0.2c-0.1-0.1-0.2-0.1-0.2-0.2s-0.2,0-0.3,0c-0.1,0-0.2,0-0.3,0.1c-0.1,0-0.2,0.1-0.2,0.2
		c-0.1,0.1-0.1,0.2-0.1,0.3c0,0.1,0,0.2,0,0.3v1.6h-0.3v-2.7H30v0.4c0.1-0.1,0.2-0.2,0.3-0.3c0.1-0.1,0.3-0.1,0.4-0.1
		c0.1,0,0.2,0,0.3,0.1C31.2,36,31.3,36,31.4,36.1"/>
	<path class="st1" d="M33.8,37.8c0,0.2,0,0.3-0.1,0.4s-0.2,0.2-0.4,0.3c-0.2,0.1-0.3,0.1-0.6,0.1c-0.5,0-0.8-0.1-1.1-0.4l0.2-0.2
		c0.2,0.2,0.5,0.3,0.9,0.3c0.3,0,0.5,0,0.6-0.1c0.1-0.1,0.2-0.2,0.2-0.4c0-0.1,0-0.2-0.1-0.3c-0.1-0.1-0.2-0.1-0.4-0.1l-0.4,0
		c-0.5,0-0.8-0.3-0.8-0.7c0-0.2,0-0.3,0.1-0.4c0.1-0.1,0.2-0.2,0.3-0.3s0.3-0.1,0.5-0.1c0.2,0,0.4,0,0.5,0.1
		c0.2,0.1,0.3,0.1,0.4,0.2l-0.2,0.2c-0.2-0.2-0.5-0.2-0.7-0.2c-0.2,0-0.4,0-0.5,0.1c-0.1,0.1-0.2,0.2-0.2,0.4c0,0.1,0,0.2,0.1,0.3
		c0.1,0.1,0.2,0.1,0.4,0.1l0.4,0c0.2,0,0.4,0.1,0.6,0.2C33.8,37.4,33.8,37.6,33.8,37.8"/>
	<path class="st1" d="M35,34.8c0,0.1,0,0.1-0.1,0.1S34.9,35,34.8,35s-0.1,0-0.1-0.1s-0.1-0.1-0.1-0.1c0-0.1,0-0.1,0.1-0.1
		c0,0,0.1-0.1,0.1-0.1c0.1,0,0.1,0,0.1,0.1C35,34.7,35,34.8,35,34.8 M35,38.6h-0.3v-2.7H35V38.6z"/>
	<path class="st1" d="M37,38.6h-0.2c-0.1,0-0.2,0-0.3-0.1c-0.1-0.1-0.2-0.1-0.2-0.2c0-0.1-0.1-0.2-0.1-0.4v-1.8h-0.4v-0.2h0.4v-0.8
		h0.3v0.8H37v0.2h-0.6v1.8c0,0.3,0.1,0.4,0.4,0.4H37V38.6z"/>
	<path class="st1" d="M39.7,38.6h-0.3v-0.3c-0.1,0.1-0.2,0.2-0.3,0.2c-0.1,0-0.3,0.1-0.5,0.1c-0.1,0-0.2,0-0.3,0s-0.2,0-0.3-0.1
		c-0.1,0-0.1-0.1-0.2-0.1c-0.1-0.1-0.2-0.3-0.2-0.5c0-0.2,0.1-0.4,0.2-0.6c0.2-0.1,0.4-0.2,0.7-0.2h0.9v-0.3c0-0.2-0.1-0.4-0.2-0.5
		c-0.1-0.1-0.3-0.2-0.6-0.2c-0.2,0-0.3,0-0.4,0.1c-0.1,0.1-0.2,0.1-0.3,0.3l-0.2-0.2c0.1-0.1,0.2-0.2,0.2-0.2
		c0.1-0.1,0.2-0.1,0.3-0.1c0.1,0,0.2,0,0.4,0c0.7,0,1,0.3,1,0.9V38.6z M39.4,37.6v-0.3h-0.8c-0.5,0-0.7,0.2-0.7,0.5
		c0,0.2,0.1,0.3,0.2,0.4c0.1,0.1,0.3,0.1,0.5,0.1c0.1,0,0.3,0,0.4,0c0.1,0,0.2-0.1,0.3-0.2C39.3,38.1,39.4,37.9,39.4,37.6"/>
	<path class="st1" d="M41.1,34.8c0,0.1,0,0.1-0.1,0.1c0,0-0.1,0.1-0.1,0.1c-0.1,0-0.1,0-0.1-0.1c0,0-0.1-0.1-0.1-0.1
		c0-0.1,0-0.1,0.1-0.1c0,0,0.1-0.1,0.1-0.1c0.1,0,0.1,0,0.1,0.1C41,34.7,41.1,34.8,41.1,34.8 M41,38.6h-0.3v-2.7H41V38.6z"/>
	<path class="st1" d="M43.8,36.1l-0.2,0.2c-0.1-0.1-0.2-0.1-0.2-0.2s-0.2,0-0.3,0c-0.1,0-0.2,0-0.3,0.1c-0.1,0-0.2,0.1-0.2,0.2
		c-0.1,0.1-0.1,0.2-0.1,0.3c0,0.1,0,0.2,0,0.3v1.6h-0.3v-2.7h0.3v0.4c0.1-0.1,0.2-0.2,0.3-0.3c0.1-0.1,0.3-0.1,0.4-0.1
		c0.1,0,0.2,0,0.3,0.1C43.6,36,43.7,36,43.8,36.1"/>
	<path class="st1" d="M46.3,37.3h-1.8c0,0.3,0.1,0.6,0.2,0.8c0.1,0.2,0.4,0.3,0.6,0.3c0.2,0,0.3,0,0.4-0.1c0.1,0,0.2-0.1,0.3-0.2
		l0.2,0.2c-0.1,0.1-0.3,0.2-0.4,0.3c-0.1,0.1-0.3,0.1-0.5,0.1c-0.2,0-0.4-0.1-0.6-0.2c-0.2-0.1-0.3-0.3-0.4-0.5
		c-0.1-0.2-0.1-0.5-0.1-0.7c0-0.2,0-0.4,0.1-0.6c0-0.2,0.1-0.3,0.2-0.4c0.1-0.1,0.2-0.2,0.3-0.3c0.1-0.1,0.3-0.1,0.4-0.1
		c0.2,0,0.3,0,0.4,0.1c0.1,0.1,0.2,0.1,0.3,0.3c0.1,0.1,0.2,0.2,0.2,0.4c0,0.2,0.1,0.3,0.1,0.5V37.3z M46,37.1c0-0.1,0-0.2,0-0.3
		c0-0.1,0-0.1-0.1-0.2c-0.1-0.1-0.1-0.2-0.3-0.3c-0.1-0.1-0.3-0.1-0.4-0.1c-0.2,0-0.3,0-0.4,0.1c-0.1,0.1-0.2,0.2-0.3,0.3
		c0,0.1-0.1,0.2-0.1,0.2c0,0.1,0,0.2,0,0.3H46z"/>
	<polygon class="st1" points="20.2,41.5 19,41.5 19,45.2 18.7,45.2 18.7,41.5 17.5,41.5 17.5,41.2 20.2,41.2 	"/>
	<path class="st1" d="M22.8,43.9H21c0,0.3,0.1,0.6,0.2,0.8c0.1,0.2,0.4,0.3,0.6,0.3c0.2,0,0.3,0,0.4-0.1c0.1,0,0.2-0.1,0.3-0.2
		l0.2,0.2c-0.1,0.1-0.3,0.2-0.4,0.3c-0.1,0.1-0.3,0.1-0.5,0.1c-0.2,0-0.4-0.1-0.6-0.2c-0.2-0.1-0.3-0.3-0.4-0.5
		c-0.1-0.2-0.1-0.5-0.1-0.7c0-0.2,0-0.4,0.1-0.6c0-0.2,0.1-0.3,0.2-0.4c0.1-0.1,0.2-0.2,0.3-0.3c0.1-0.1,0.3-0.1,0.4-0.1
		c0.2,0,0.3,0,0.4,0.1c0.1,0.1,0.2,0.1,0.3,0.3c0.1,0.1,0.2,0.2,0.2,0.4c0,0.2,0.1,0.3,0.1,0.5V43.9z M22.6,43.7c0-0.1,0-0.2,0-0.3
		c0-0.1,0-0.1-0.1-0.2c-0.1-0.1-0.1-0.2-0.3-0.3c-0.1-0.1-0.3-0.1-0.4-0.1c-0.2,0-0.3,0-0.4,0.1c-0.1,0.1-0.2,0.2-0.3,0.3
		c0,0.1-0.1,0.2-0.1,0.2c0,0.1,0,0.2,0,0.3H22.6z"/>
	<path class="st1" d="M25.6,44.8c-0.1,0.2-0.3,0.3-0.4,0.3s-0.3,0.1-0.5,0.1c-0.2,0-0.3,0-0.5-0.1C24.1,45,24,45,23.9,44.8
		c-0.1-0.1-0.2-0.3-0.2-0.4c-0.1-0.2-0.1-0.4-0.1-0.6c0-0.3,0-0.5,0.1-0.7c0.1-0.2,0.2-0.4,0.4-0.5c0.2-0.1,0.4-0.2,0.6-0.2
		c0.2,0,0.3,0,0.5,0.1s0.3,0.2,0.4,0.3l-0.2,0.2c-0.1-0.1-0.1-0.2-0.2-0.2c-0.1,0-0.1-0.1-0.2-0.1c-0.1,0-0.2,0-0.3,0
		c-0.3,0-0.5,0.1-0.7,0.4c-0.1,0.1-0.1,0.2-0.1,0.3c0,0.1,0,0.3,0,0.4c0,0.2,0,0.3,0,0.4c0,0.1,0.1,0.2,0.1,0.3
		c0.2,0.2,0.4,0.4,0.7,0.4c0.1,0,0.3,0,0.4-0.1c0.1,0,0.2-0.1,0.3-0.3L25.6,44.8z"/>
	<path class="st1" d="M28.5,45.2h-0.3v-1.6c0-0.3-0.1-0.5-0.2-0.6c-0.1-0.1-0.3-0.2-0.5-0.2c-0.2,0-0.3,0-0.4,0.1
		c-0.1,0.1-0.2,0.2-0.3,0.3c-0.1,0.1-0.1,0.3-0.1,0.4v1.6h-0.3v-3.9h0.3v1.6c0.2-0.2,0.5-0.3,0.8-0.3c0.2,0,0.4,0,0.5,0.1
		c0.1,0.1,0.3,0.2,0.3,0.3c0.1,0.1,0.1,0.3,0.1,0.5V45.2z"/>
	<path class="st1" d="M31.6,45.2h-0.3v-1.6c0-0.3-0.1-0.5-0.2-0.6c-0.1-0.1-0.3-0.2-0.5-0.2c-0.2,0-0.3,0-0.4,0.1
		c-0.1,0.1-0.2,0.2-0.3,0.3c-0.1,0.1-0.1,0.3-0.1,0.4v1.6h-0.3v-2.7h0.3v0.3c0.2-0.2,0.5-0.3,0.8-0.3c0.3,0,0.5,0.1,0.7,0.3
		c0.2,0.2,0.3,0.4,0.3,0.7V45.2z"/>
	<path class="st1" d="M34.6,43.8c0,0.1,0,0.3,0,0.4c0,0.1-0.1,0.2-0.1,0.4c0,0.1-0.1,0.2-0.2,0.3c-0.2,0.2-0.4,0.3-0.7,0.3
		c-0.3,0-0.5-0.1-0.7-0.3c-0.1-0.1-0.2-0.2-0.2-0.3c0-0.1-0.1-0.2-0.1-0.4c0-0.1,0-0.3,0-0.4c0-0.2,0-0.4,0.1-0.6
		c0-0.2,0.1-0.3,0.3-0.5c0.2-0.2,0.4-0.3,0.7-0.3c0.3,0,0.5,0.1,0.7,0.3c0.1,0.1,0.2,0.2,0.2,0.3c0,0.1,0.1,0.2,0.1,0.4
		C34.6,43.6,34.6,43.7,34.6,43.8 M34.3,43.8c0-0.2,0-0.4,0-0.5c0-0.1-0.1-0.3-0.2-0.4c-0.1-0.2-0.3-0.2-0.5-0.2S33.1,42.8,33,43
		c-0.1,0.1-0.2,0.2-0.2,0.4s0,0.3,0,0.5c0,0.2,0,0.4,0,0.5c0,0.2,0.1,0.3,0.2,0.4c0.2,0.2,0.3,0.2,0.6,0.2c0.2,0,0.4-0.1,0.5-0.2
		c0.1-0.1,0.2-0.2,0.2-0.4C34.3,44.2,34.3,44,34.3,43.8"/>
	<path class="st1" d="M36.4,45.2h-0.2c-0.2,0-0.4-0.1-0.5-0.2c-0.1-0.1-0.2-0.3-0.2-0.5v-3.2h0.3v3.2c0,0.2,0,0.3,0.1,0.3
		c0.1,0.1,0.2,0.1,0.3,0.1h0.2V45.2z"/>
	<path class="st1" d="M39.1,43.8c0,0.1,0,0.3,0,0.4c0,0.1-0.1,0.2-0.1,0.4c0,0.1-0.1,0.2-0.2,0.3c-0.2,0.2-0.4,0.3-0.7,0.3
		c-0.3,0-0.5-0.1-0.7-0.3c-0.1-0.1-0.2-0.2-0.2-0.3c0-0.1-0.1-0.2-0.1-0.4c0-0.1,0-0.3,0-0.4c0-0.2,0-0.4,0.1-0.6
		c0-0.2,0.1-0.3,0.3-0.5c0.2-0.2,0.4-0.3,0.7-0.3c0.3,0,0.5,0.1,0.7,0.3c0.1,0.1,0.2,0.2,0.2,0.3c0,0.1,0.1,0.2,0.1,0.4
		C39.1,43.6,39.1,43.7,39.1,43.8 M38.8,43.8c0-0.2,0-0.4,0-0.5c0-0.1-0.1-0.3-0.2-0.4c-0.1-0.2-0.3-0.2-0.6-0.2
		c-0.2,0-0.4,0.1-0.6,0.2c-0.1,0.1-0.2,0.2-0.2,0.4s0,0.3,0,0.5c0,0.2,0,0.4,0,0.5c0,0.2,0.1,0.3,0.2,0.4c0.2,0.2,0.3,0.2,0.6,0.2
		c0.2,0,0.4-0.1,0.6-0.2c0.1-0.1,0.2-0.2,0.2-0.4C38.8,44.2,38.8,44,38.8,43.8"/>
	<path class="st1" d="M41.9,45.3c0,0.2,0,0.4-0.1,0.6c-0.1,0.2-0.2,0.3-0.4,0.4c-0.2,0.1-0.4,0.1-0.6,0.1c-0.2,0-0.3,0-0.5-0.1
		c-0.1-0.1-0.3-0.1-0.4-0.3l0.2-0.2c0.1,0.1,0.2,0.2,0.3,0.2c0.1,0,0.2,0.1,0.4,0.1c0.3,0,0.5-0.1,0.6-0.3c0.1-0.2,0.2-0.4,0.2-0.7
		v-0.5c-0.1,0.1-0.2,0.2-0.2,0.2c-0.1,0.1-0.2,0.1-0.3,0.1c-0.1,0-0.2,0-0.3,0c-0.3,0-0.5-0.1-0.6-0.2c-0.2-0.2-0.3-0.6-0.3-1.1
		c0-0.5,0.1-0.9,0.3-1.1c0.1-0.1,0.2-0.1,0.3-0.2s0.2-0.1,0.4-0.1c0.2,0,0.3,0,0.4,0.1c0.1,0.1,0.2,0.2,0.3,0.3v-0.3h0.3V45.3z
		 M41.6,43.8c0-0.3-0.1-0.6-0.2-0.8c-0.1-0.2-0.3-0.3-0.6-0.3c-0.3,0-0.5,0.1-0.6,0.3c-0.1,0.2-0.2,0.5-0.2,0.8
		c0,0.3,0.1,0.6,0.2,0.8c0.1,0.2,0.3,0.3,0.6,0.3c0.3,0,0.5-0.1,0.6-0.3C41.6,44.4,41.6,44.2,41.6,43.8"/>
	<path class="st1" d="M43.3,41.4c0,0.1,0,0.1-0.1,0.1c0,0-0.1,0.1-0.1,0.1s-0.1,0-0.1-0.1c0,0-0.1-0.1-0.1-0.1c0-0.1,0-0.1,0.1-0.1
		c0,0,0.1-0.1,0.1-0.1c0.1,0,0.1,0,0.2,0.1C43.3,41.3,43.3,41.4,43.3,41.4 M43.2,45.2H43v-2.7h0.3V45.2z"/>
	<path class="st1" d="M46.3,43.9h-1.8c0,0.3,0.1,0.6,0.2,0.8c0.1,0.2,0.4,0.3,0.6,0.3c0.2,0,0.3,0,0.4-0.1c0.1,0,0.2-0.1,0.3-0.2
		l0.2,0.2c-0.1,0.1-0.3,0.2-0.4,0.3c-0.1,0.1-0.3,0.1-0.5,0.1c-0.2,0-0.4-0.1-0.6-0.2c-0.2-0.1-0.3-0.3-0.4-0.5
		c-0.1-0.2-0.1-0.5-0.1-0.7c0-0.2,0-0.4,0.1-0.6c0-0.2,0.1-0.3,0.2-0.4c0.1-0.1,0.2-0.2,0.3-0.3c0.1-0.1,0.3-0.1,0.4-0.1
		c0.2,0,0.3,0,0.4,0.1c0.1,0.1,0.2,0.1,0.3,0.3c0.1,0.1,0.2,0.2,0.2,0.4c0,0.2,0.1,0.3,0.1,0.5V43.9z M46,43.7c0-0.1,0-0.2,0-0.3
		c0-0.1,0-0.1-0.1-0.2c-0.1-0.1-0.1-0.2-0.3-0.3c-0.1-0.1-0.3-0.1-0.4-0.1c-0.2,0-0.3,0-0.4,0.1c-0.1,0.1-0.2,0.2-0.3,0.3
		c0,0.1-0.1,0.2-0.1,0.2c0,0.1,0,0.2,0,0.3H46z"/>
</g>
</svg>
